<svg width="181" height="97" viewBox="0 0 181 97" fill="none" xmlns="http://www.w3.org/2000/svg">
<g clip-path="url(#clip0_2219_5749)">
<path d="M13.7568 0.98584H0V66.6799H9.83765V39.4964H13.7568C26.3363 39.4964 30.7569 34.4738 30.7569 20.1918C30.7569 6.0084 26.3395 0.98584 13.7568 0.98584ZM12.9698 30.3355H9.83765V10.1435H12.9825C19.358 10.1435 20.9447 12.2142 20.9447 20.1918C20.9447 28.268 19.358 30.3355 12.9698 30.3355Z" fill="#15173B"/>
<path d="M38.4209 66.6799H65.1476V57.5191H48.2459V37.2316H60.4318V28.0708H48.2459V10.1435H65.1476V0.98584H38.4209V66.6799Z" fill="#15173B"/>
<path d="M95.019 23.8339L106.32 0.98584H96.0027L84.407 27.2819V0.98584H74.582V66.6799H84.407V45.2092L88.926 36.147L88.9387 36.1883L95.0316 23.8721L95.019 23.8339Z" fill="#15173B"/>
<path d="M90.5 41.8918L97.2816 66.6802H107.795L96.6787 29.3975L90.5 41.8918Z" fill="#F06035"/>
<path d="M128.429 0C123.812 0 119.585 1.96895 116.932 5.21977C113.787 9.06224 113 12.7043 113 22.3582V45.308C113 54.9587 113.787 58.604 116.932 62.4464C119.585 65.6941 123.812 67.6662 128.429 67.6662C132.948 67.6662 137.175 65.6941 139.828 62.4464C142.973 58.604 143.757 55.0573 143.757 45.308V22.3582C143.757 12.6057 142.973 9.06224 139.828 5.21977C137.274 1.96895 132.948 0 128.429 0ZM133.919 44.2138C133.919 49.7294 133.723 52.8816 133.427 54.1635C132.739 56.9213 130.873 58.4958 128.417 58.4958C126.059 58.4958 124.291 57.1153 123.504 54.7519C123.012 53.3746 122.815 50.4196 122.815 44.2138V23.4429C122.815 18.1245 123.012 14.775 123.307 13.4932C123.993 10.7354 125.846 9.16084 128.417 9.16084C130.676 9.16084 132.447 10.5382 133.231 12.9015C133.723 14.282 133.919 17.0366 133.919 23.4429V44.2138Z" fill="#15173B"/>
<path d="M181 10.1435V0.98584H154.271V66.6799H181V57.5191H164.099V37.2316H176.281V28.0708H164.099V10.1435H181Z" fill="#15173B"/>
<path d="M13.2459 96.5802V87.5338C13.2459 87.1903 13.3189 86.2329 13.3411 86.1343L12.8016 87.5338L8.85388 96.5802H7.01329L3.06554 87.5338C2.91956 87.1903 2.59904 86.2806 2.55144 86.1343C2.55144 86.2074 2.62443 87.1903 2.62443 87.5338V96.5802H0V81.8306H3.1893L8.04466 92.6232L12.8778 81.8306H15.9655V96.5802H13.2459Z" fill="#678B98"/>
<path d="M32.6609 97.0158C28.1482 97.0158 24.6416 93.7459 24.6416 89.2228C24.6416 84.6996 28.1324 81.4297 32.6609 81.4297C37.1894 81.4297 40.5945 84.6996 40.5945 89.2228C40.5945 93.7459 37.1481 97.0158 32.6609 97.0158ZM32.6609 83.8121C29.7191 83.8121 27.7801 86.0387 27.7801 89.2196C27.7801 92.4004 29.7191 94.627 32.6609 94.627C35.6026 94.627 37.4686 92.4004 37.4686 89.2196C37.4686 86.0387 35.5423 83.7962 32.6609 83.7962V83.8121Z" fill="#678B98"/>
<path d="M61.4726 96.5802H58.1849L54.1134 90.7051H52.2728V96.5802H49.2803V81.8306H55.0686C58.5594 81.8306 60.0477 83.8949 60.0477 86.2838C60.0477 88.275 58.9942 89.8495 57.106 90.3902L61.4726 96.5802ZM52.2697 88.593H54.5831C56.4459 88.593 57.1218 87.607 57.1218 86.306C57.1218 85.005 56.4586 83.9713 54.5831 83.9713H52.276L52.2697 88.593Z" fill="#678B98"/>
<path d="M75.667 84.1653V96.5706H72.6713V84.1653H67.6953V81.8306H80.6461V84.1653H75.667Z" fill="#678B98"/>
<path d="M94.9622 97.0159C90.7193 97.0159 87.1396 93.9909 87.1396 89.2228C87.1396 84.4547 90.8653 81.5283 95.1589 81.5283C97.0979 81.5283 99.1575 82.0913 100.382 83.0265V85.7557C99.0218 84.5573 97.2652 83.9088 95.4541 83.9362C92.3885 83.9362 90.2528 85.9529 90.2528 89.3437C90.2528 92.6645 92.3377 94.7511 95.2827 94.7511C96.2699 94.7775 97.2491 94.567 98.1388 94.1372V91.2585H95.5207V89.0479H100.989V95.5622C100.163 95.893 97.8563 97.0159 94.9622 97.0159Z" fill="#678B98"/>
<path d="M120.292 96.5802L118.797 92.9445H112.834L111.339 96.5802H108.445L114.7 81.8306H117.029L123.284 96.5802H120.292ZM115.83 85.4949L113.647 90.8546H117.988L115.83 85.4949Z" fill="#678B98"/>
<path d="M137.381 97.0159C133.135 97.0159 129.556 93.9909 129.556 89.2228C129.556 84.4547 133.284 81.5283 137.575 81.5283C139.514 81.5283 141.573 82.0913 142.802 83.0265V85.7557C141.44 84.5565 139.682 83.908 137.87 83.9362C134.805 83.9362 132.672 85.9529 132.672 89.3437C132.672 92.6645 134.757 94.7511 137.699 94.7511C138.686 94.777 139.665 94.5665 140.555 94.1372V91.2585H137.953V89.0479H143.424V95.5622C142.579 95.893 140.266 97.0159 137.381 97.0159Z" fill="#678B98"/>
<path d="M152.775 96.5802V81.8306H162.365V84.1653H155.768V87.6324H161.137V89.9672H155.768V94.2454H162.365V96.5802H152.775Z" fill="#678B98"/>
<path d="M175.628 96.8758C173.721 96.916 171.865 96.2604 170.404 95.0309L171.09 92.6739C172.07 93.6058 173.629 94.6651 175.628 94.6651C177.1 94.6651 178.227 93.9271 178.227 92.623C178.227 91.3952 177.541 90.8035 175.139 90.1642C172.048 89.4039 170.82 87.7563 170.82 85.641C170.82 83.2331 172.724 81.4868 175.898 81.4868C177.486 81.4858 179.032 81.9941 180.312 82.9373L179.677 85.0271C178.549 84.2587 177.231 83.8183 175.869 83.7548C174.422 83.7548 173.565 84.3909 173.565 85.4502C173.565 86.3122 174.105 86.9515 176.104 87.4668C179.537 88.3288 181.01 89.7793 181.01 92.3335C181 95.4984 178.398 96.8758 175.628 96.8758Z" fill="#678B98"/>
</g>
<defs>
<clipPath id="clip0_2219_5749">
<rect width="181" height="97" fill="white"/>
</clipPath>
</defs>
</svg>
