<svg width="27" height="26" viewBox="0 0 27 26" fill="none" xmlns="http://www.w3.org/2000/svg">
<rect x="0.994141" y="0.525391" width="25.0453" height="25.0453" rx="4.69599" fill="#F3F6F9"/>
<path d="M9.99512 10.6997V17.7437C9.99512 18.3921 10.5207 18.9177 11.1691 18.9177H15.8651C16.5135 18.9177 17.0391 18.3921 17.0391 17.7437V10.6997H9.99512Z" fill="#3699FF"/>
<path opacity="0.3" fill-rule="evenodd" clip-rule="evenodd" d="M14.6912 8.64515V8.54731C14.6912 8.11506 14.3408 7.76465 13.9085 7.76465H13.1259C12.6936 7.76465 12.3432 8.11506 12.3432 8.54731V8.64515H9.79954C9.58341 8.64515 9.4082 8.82035 9.4082 9.03648V9.13431C9.4082 9.35044 9.58341 9.52564 9.79954 9.52564H17.2349C17.451 9.52564 17.6262 9.35044 17.6262 9.13431V9.03648C17.6262 8.82035 17.451 8.64515 17.2349 8.64515H14.6912Z" fill="#3699FF"/>
</svg>
